<svg xmlns="http://www.w3.org/2000/svg" viewBox="0 0 1030 260" role="img" aria-labelledby="title desc">
<title id="title">Vendwyze</title><desc id="desc">Vendwyze shopping cart logo and tagline Sell Smarter. Grow Easier.</desc>
<defs>
<linearGradient id="lime" x1="65" y1="40" x2="255" y2="225" gradientUnits="userSpaceOnUse"><stop offset="0" stop-color="#B7F20B"/><stop offset="0.45" stop-color="#72D51A"/><stop offset="1" stop-color="#06351F"/></linearGradient>
</defs>
<g fill="none" stroke="#75D91A" stroke-width="15" stroke-linecap="round"><path d="M20 108h72"/><path d="M20 145h72"/><path d="M40 182h52"/></g>
<path d="M145 74c0-34 25-56 57-56s57 22 57 56" fill="none" stroke="#0B3A22" stroke-width="18" stroke-linecap="round"/>
<path d="M95 73h116c11 0 20 7 24 18l38 108c6 18-7 36-26 36H145c-18 0-32-12-36-29L84 97c-3-13 1-24 11-24Z" fill="url(#lime)"/>
<path d="M95 73h46l43 88 48-88h47l-60 126c-7 15-20 24-36 24h-10c-17 0-30-9-38-25L95 73Z" fill="url(#lime)" opacity=".98"/>
<path d="M125 73h39l35 72 39-72h32l-47 102c-5 10-13 15-24 15h-8c-11 0-20-6-25-16L125 73Z" fill="#B7F20B" opacity=".28"/>
<circle cx="143" cy="249" r="20" fill="#0B3021"/><circle cx="226" cy="249" r="20" fill="#0B3021"/>
<text x="320" y="150" font-family="Arial Black,Arial,sans-serif" font-size="91" font-weight="900" letter-spacing="2" fill="#071C17">V</text>
<text x="389" y="150" font-family="Arial Black,Arial,sans-serif" font-size="91" font-weight="900" letter-spacing="2" fill="#071C17">ENDWYZE</text>
<text x="321" y="205" font-family="Arial,sans-serif" font-size="31" font-weight="500" letter-spacing="7" fill="#08291F">Sell Smarter. Grow Easier.</text>
</svg>